<?xml version="1.0" encoding="UTF-8"?>
<svg id="Artwork" xmlns="http://www.w3.org/2000/svg" viewBox="0 0 591.15 100">
  <defs>
    <style>
      .cls-1, .cls-2 {
        stroke-width: 0px;
      }

      .cls-2 {
        fill: #fff;
      }
    </style>
  </defs>
  <rect class="cls-1" x="330" width="100" height="100" rx="18" ry="18"/>
  <path class="cls-2" d="M364.02,27.24h31.85v6.96h-23.73v11.77h20.15v6.83h-20.15v13h24.05v6.96h-32.18V27.24Z"/>
  <rect class="cls-1" x="110" width="100" height="100" rx="18" ry="18"/>
  <path class="cls-2" d="M136.67,50c0-14.37,10.79-23.73,23.34-23.73s23.34,9.36,23.34,23.73-10.79,23.73-23.34,23.73-23.34-9.43-23.34-23.73ZM174.76,50c0-10.27-6.04-16.77-14.76-16.77s-14.76,6.5-14.76,16.77,6.05,16.77,14.76,16.77,14.76-6.56,14.76-16.77Z"/>
  <rect class="cls-1" x="0" width="100" height="100" rx="18" ry="18"/>
  <path class="cls-2" d="M28.84,50c0-14.69,10.27-23.73,22.49-23.73s18.53,7.67,19.96,14.82h-8.32c-1.1-3.64-4.62-7.74-11.44-7.74-8.12,0-14.04,6.05-14.04,16.64s5.92,16.64,14.04,16.64c6.83,0,10.34-4.1,11.44-7.74h8.32c-1.37,7.09-7.74,14.82-19.96,14.82-13.07,0-22.49-9.04-22.49-23.73Z"/>
  <path class="cls-1" d="M487.36,2.92l-49.15,88.66c-2.1,3.78.64,8.42,4.96,8.42h98.3c4.32,0,7.06-4.64,4.96-8.42L497.29,2.92c-2.16-3.9-7.76-3.9-9.92,0Z"/>
  <rect class="cls-1" x="557.65" width="33.5" height="100" rx="5.5" ry="5.5"/>
  <rect class="cls-1" x="220" width="100" height="100" rx="18" ry="18"/>
  <path class="cls-2" d="M253.06,27.24h14.95c13.65,0,23.92,9.1,23.92,22.75s-10.27,22.75-23.92,22.75h-14.95V27.24ZM267.36,65.79c10.27,0,16.32-5.72,16.32-15.8s-6.05-15.8-16.32-15.8h-6.17v31.59h6.17Z"/>
</svg>