<svg viewBox="0 0 64 64" fill="none" xmlns="http://www.w3.org/2000/svg">
<defs>
  <clipPath id="clip">
    <rect width="64" height="64" rx="4.57143"/>
  </clipPath>
  <style>
    .bg   { fill: white }
    .tile { fill: black }
    .ai   { fill: black }
    .cut  { fill: white }
    @media (prefers-color-scheme: dark) {
      .bg   { fill: black }
      .tile { fill: white }
      .ai   { fill: white }
      .cut  { fill: black }
    }
  </style>
</defs>
<g clip-path="url(#clip)">
  <rect class="bg" width="64" height="64" rx="4.57143"/>
  <path class="ai" d="M35.1508 17.8396H58.6188C59.9588 17.8396 61.0452 18.926 61.0452 20.266V43.734C61.0452 45.074 59.9588 46.1605 58.6188 46.1605H35.1508C33.8108 46.1605 32.7243 45.074 32.7243 43.734V20.266C32.7243 18.926 33.8108 17.8396 35.1508 17.8396Z"/>
  <path class="cut" d="M43.2994 26.5315L37.5411 36.8893C37.2875 37.3239 37.6135 37.8671 38.1205 37.8671H49.601C50.108 37.8671 50.434 37.3239 50.1804 36.8893L44.4221 26.5315C44.2048 26.0607 43.5529 26.0607 43.2994 26.5315Z"/>
  <path class="cut" d="M52.3535 26.1693H54.9972C55.3594 26.1693 55.6491 26.4591 55.6491 26.8212V37.2152C55.6491 37.5774 55.3594 37.8671 54.9972 37.8671H52.3535C51.9913 37.8671 51.7016 37.5774 51.7016 37.2152V26.8212C51.7016 26.4591 51.9913 26.1693 52.3535 26.1693Z"/>
  <path class="tile" d="M5.3812 32.7244H13.9644C15.3044 32.7244 16.3909 33.8109 16.3909 35.1509V43.7341C16.3909 45.0741 15.3044 46.1606 13.9644 46.1606H5.3812C4.04121 46.1606 2.95473 45.0741 2.95473 43.7341V35.1509C2.95473 33.8109 4.04121 32.7244 5.3812 32.7244Z"/>
  <path class="tile" d="M5.3812 17.8396H13.9644C15.3044 17.8396 16.3909 18.926 16.3909 20.266V28.8492C16.3909 30.1892 15.3044 31.2757 13.9644 31.2757H5.3812C4.04121 31.2757 2.95473 30.1892 2.95473 28.8492V20.266C2.95473 18.926 4.04121 17.8396 5.3812 17.8396Z"/>
  <path class="tile" d="M20.266 32.7244H28.8492C30.1892 32.7244 31.2757 33.8109 31.2757 35.1509V43.7341C31.2757 45.0741 30.1892 46.1606 28.8492 46.1606H20.266C18.926 46.1606 17.8396 45.0741 17.8396 43.7341V35.1509C17.8396 33.8109 18.926 32.7244 20.266 32.7244Z"/>
  <path class="tile" d="M20.266 17.8396H28.8492C30.1892 17.8396 31.2757 18.926 31.2757 20.266V28.8492C31.2757 30.1892 30.1892 31.2757 28.8492 31.2757H20.266C18.926 31.2757 17.8396 30.1892 17.8396 28.8492V20.266C17.8396 18.926 18.926 17.8396 20.266 17.8396Z"/>
</g>
</svg>
